# xmcd CD database file
#
# Track frame offsets:
#	150
#	5960
#	30842
#	82707
#	114660
#	142417
#	183575
#	218430
#	249052
#	292692
#	322557
#
# Disc length: 4381 seconds
#
# Revision: 0
# Processed by: cddbd v1.5.1PL0 Copyright (c) Steve Scherf et al.
# Submitted via: CDex 1.60beta1
#
DISCID=82111b0b
DTITLE=John Klemmer - Making Love
DYEAR=1998
DGENRE=Jazz
TTITLE0=Entre
TTITLE1=Appassianato (variation 1)
TTITLE2=Amoroso (Variation 1)
TTITLE3=Consolente
TTITLE4=Making Love
TTITLE5=Amoroso (variation 2)
TTITLE6=Expressivo
TTITLE7=Consolente
TTITLE8=Amoroso (variation 3)
TTITLE9=Appassianato (variation 2)
TTITLE10=Finale
EXTD=YEAR: 1998
EXTT0=
EXTT1=
EXTT2=
EXTT3=
EXTT4=
EXTT5=
EXTT6=
EXTT7=
EXTT8=
EXTT9=
EXTT10=
PLAYORDER=
